#define close_width 12
#define close_height 12
static unsigned char close_bits[] = {
   0x00, 0x00, 0x00, 0x00, 0x0c, 0x03, 0x0c, 0x03, 0xf0, 0x00, 0xf0, 0x00,
   0xf0, 0x00, 0xf0, 0x00, 0x0c, 0x03, 0x0c, 0x03, 0x00, 0x00, 0x00, 0x00 };
